<svg xmlns="http://www.w3.org/2000/svg" width="1200" height="14393" viewBox="0 0 1200 14393"><g fill="#ECD099"><g transform="translate(547 350) rotate(0) scale(2.5)"><circle r="74"/></g><g transform="translate(343 1241) rotate(270) scale(2.5)"><circle r="90"/></g><g transform="translate(933 2139) rotate(270) scale(2.5)"><circle r="76"/></g><g transform="translate(676 2941) rotate(180) scale(2.5)"><rect x="-65" y="-55" width="130" height="128"/></g><g transform="translate(442 3624) rotate(0) scale(2.5)"><circle r="76"/></g><g transform="translate(754 4352) rotate(180) scale(2.5)"><rect x="-82" y="-55" width="164" height="163"/></g><g transform="translate(358 5227) rotate(90) scale(2.5)"><path d="M-81 0a81 81 0 0 1 162 0Z"/></g><g transform="translate(551 5926) rotate(180) scale(2.5)"><rect x="-85" y="-55" width="170" height="90"/></g><g transform="translate(333 6844) rotate(0) scale(2.5)"><rect x="-75" y="-55" width="150" height="127"/></g><g transform="translate(475 7725) rotate(90) scale(2.5)"><path d="M-78 0a78 78 0 0 1 156 0Z"/></g><g transform="translate(816 8554) rotate(0) scale(2.5)"><rect x="-84" y="-55" width="168" height="90"/></g><g transform="translate(358 9251) rotate(90) scale(2.5)"><circle r="99"/></g><g transform="translate(479 10093) rotate(180) scale(2.5)"><rect x="-103" y="-55" width="206" height="139"/></g><g transform="translate(890 10964) rotate(270) scale(2.5)"><circle r="103"/></g><g transform="translate(697 11696) rotate(90) scale(2.5)"><path d="M-97 0a97 97 0 0 1 194 0Z"/></g><g transform="translate(664 12520) rotate(90) scale(2.5)"><path d="M-92 0a92 92 0 0 1 184 0Z"/></g><g transform="translate(892 13216) rotate(90) scale(2.5)"><path d="M-76 0a76 76 0 0 1 152 0Z"/></g><g transform="translate(525 13993) rotate(180) scale(2.5)"><path d="M-97 0a97 97 0 0 1 194 0Z"/></g></g></svg>